<svg width="18" height="30" viewBox="0 0 18 30" fill="none" xmlns="http://www.w3.org/2000/svg">
<path d="M7.52561 21.1225C5.2032 20.8803 3.10921 20.3083 1.31642 18.9062C1.09397 18.7317 0.8643 18.5635 0.661302 18.3687C-0.123397 17.6151 -0.202463 16.7519 0.418456 15.8624C0.949641 15.1013 1.84133 14.8976 2.76816 15.3347C2.94763 15.4194 3.11862 15.5251 3.2824 15.6387C6.62357 17.9345 11.2135 17.9978 14.5672 15.7419C14.8995 15.4872 15.2546 15.2795 15.6663 15.1734C16.4667 14.9679 17.2131 15.2619 17.6426 15.9622C18.1333 16.762 18.127 17.5426 17.5224 18.1635C16.595 19.1154 15.4796 19.8041 14.2403 20.2848C13.0684 20.7391 11.7848 20.9678 10.5144 21.1197C10.7061 21.3283 10.7965 21.4309 10.9164 21.5514C12.6414 23.2846 14.3739 25.0105 16.0933 26.7491C16.6791 27.3414 16.8014 28.0759 16.4789 28.7649C16.1262 29.5179 15.3368 30.0134 14.5628 29.9603C14.0724 29.9264 13.6899 29.6823 13.3501 29.34C12.0484 28.0301 10.7221 26.7444 9.44673 25.4096C9.07556 25.0215 8.89703 25.0949 8.56947 25.4319C7.25986 26.7801 5.92892 28.1076 4.59013 29.4276C3.98898 30.0203 3.27362 30.1269 2.57646 29.7884C1.83537 29.4291 1.3638 28.6727 1.40019 27.9125C1.42529 27.3982 1.67818 27.0054 2.03115 26.6531C3.73829 24.9484 5.44072 23.2394 7.14377 21.532C7.25641 21.4184 7.36152 21.2979 7.52561 21.1225Z" fill="#727272"/>
<path d="M8.94025 15.1847C4.79713 15.1706 1.3998 11.7359 1.42396 7.58622C1.4478 3.39071 4.84733 0.00969166 9.03124 0.0213006C13.2236 0.0325957 16.5886 3.46224 16.5676 7.70137C16.5463 11.8426 13.1254 15.1992 8.94025 15.1847ZM12.7056 7.59626C12.6984 5.53584 11.0575 3.89554 9.00112 3.89365C6.92752 3.89146 5.27184 5.56157 5.28784 7.64082C5.30321 9.6934 6.95826 11.3221 9.02026 11.3146C11.076 11.3073 12.7125 9.65637 12.7056 7.59626Z" fill="#727272"/>
</svg>
